<svg width="20" height="21" viewBox="0 0 20 21" fill="none" xmlns="http://www.w3.org/2000/svg">
<path d="M10 19.8215C5.05835 19.8215 1.04169 15.8049 1.04169 10.8633C1.04169 5.92175 5.05835 1.90515 10 1.90515C14.9417 1.90515 18.9584 5.92175 18.9584 10.8633C18.9584 15.8049 14.9417 19.8215 10 19.8215ZM10 3.15513C5.75002 3.15513 2.29169 6.61341 2.29169 10.8633C2.29169 15.1133 5.75002 18.5716 10 18.5716C14.25 18.5716 17.7084 15.1133 17.7084 10.8633C17.7084 6.61341 14.25 3.15513 10 3.15513Z" fill="#151B25"/>
<path d="M7.64165 13.8466C7.48332 13.8466 7.32499 13.7883 7.19999 13.6633C6.95832 13.4216 6.95832 13.0216 7.19999 12.78L11.9167 8.06339C12.1583 7.82173 12.5583 7.82173 12.8 8.06339C13.0417 8.30505 13.0417 8.70504 12.8 8.94671L8.08332 13.6633C7.96665 13.7883 7.79999 13.8466 7.64165 13.8466Z" fill="#151B25"/>
<path d="M12.3583 13.8466C12.2 13.8466 12.0417 13.7883 11.9167 13.6633L7.19999 8.94671C6.95832 8.70504 6.95832 8.30505 7.19999 8.06339C7.44165 7.82173 7.84165 7.82173 8.08332 8.06339L12.8 12.78C13.0417 13.0216 13.0417 13.4216 12.8 13.6633C12.675 13.7883 12.5167 13.8466 12.3583 13.8466Z" fill="#151B25"/>
</svg>
