<svg width="20" height="21" viewBox="0 0 20 21" fill="none" xmlns="http://www.w3.org/2000/svg">
<g clip-path="url(#clip0_155_5944)">
<path d="M10.0001 19.8215C5.05841 19.8215 1.04175 15.8049 1.04175 10.8633C1.04175 5.92175 5.05841 1.90515 10.0001 1.90515C14.9417 1.90515 18.9584 5.92175 18.9584 10.8633C18.9584 15.8049 14.9417 19.8215 10.0001 19.8215ZM10.0001 3.15513C5.75008 3.15513 2.29175 6.61341 2.29175 10.8633C2.29175 15.1133 5.75008 18.5716 10.0001 18.5716C14.2501 18.5716 17.7084 15.1133 17.7084 10.8633C17.7084 6.61341 14.2501 3.15513 10.0001 3.15513Z" fill="#151B25"/>
<path d="M7.64172 13.8467C7.48338 13.8467 7.32505 13.7884 7.20005 13.6634C6.95838 13.4217 6.95838 13.0217 7.20005 12.78L11.9167 8.06345C12.1584 7.82179 12.5584 7.82179 12.8 8.06345C13.0417 8.30511 13.0417 8.70511 12.8 8.94677L8.08338 13.6634C7.96671 13.7884 7.80005 13.8467 7.64172 13.8467Z" fill="#151B25"/>
<path d="M12.3584 13.8467C12.2 13.8467 12.0417 13.7884 11.9167 13.6634L7.20005 8.94677C6.95838 8.70511 6.95838 8.30511 7.20005 8.06345C7.44172 7.82179 7.84172 7.82179 8.08338 8.06345L12.8 12.78C13.0417 13.0217 13.0417 13.4217 12.8 13.6634C12.675 13.7884 12.5167 13.8467 12.3584 13.8467Z" fill="#151B25"/>
</g>
<defs>
<clipPath id="clip0_155_5944">
<rect width="20" height="19.9997" fill="white" transform="translate(0 0.863525)"/>
</clipPath>
</defs>
</svg>
