<svg width="12" height="12" viewBox="0 0 12 12" fill="none" xmlns="http://www.w3.org/2000/svg">
<path d="M4.5 8.875C4.45 8.875 4.405 8.865 4.355 8.845C4.215 8.79 4.125 8.65 4.125 8.5V5.5C4.125 5.295 4.295 5.125 4.5 5.125C4.705 5.125 4.875 5.295 4.875 5.5V7.595L5.235 7.235C5.38 7.09 5.62 7.09 5.765 7.235C5.91 7.38 5.91 7.62 5.765 7.765L4.765 8.765C4.695 8.835 4.595 8.875 4.5 8.875Z" fill="#034687"/>
<path d="M4.49997 8.875C4.40497 8.875 4.30997 8.84 4.23497 8.765L3.23497 7.765C3.08997 7.62 3.08997 7.38 3.23497 7.235C3.37997 7.09 3.61997 7.09 3.76497 7.235L4.76497 8.235C4.90997 8.38 4.90997 8.62 4.76497 8.765C4.68997 8.84 4.59497 8.875 4.49997 8.875Z" fill="#034687"/>
<path d="M7.5 11.375H4.5C1.785 11.375 0.625 10.215 0.625 7.5V4.5C0.625 1.785 1.785 0.625 4.5 0.625H7C7.205 0.625 7.375 0.795 7.375 1C7.375 1.205 7.205 1.375 7 1.375H4.5C2.195 1.375 1.375 2.195 1.375 4.5V7.5C1.375 9.805 2.195 10.625 4.5 10.625H7.5C9.805 10.625 10.625 9.805 10.625 7.5V5C10.625 4.795 10.795 4.625 11 4.625C11.205 4.625 11.375 4.795 11.375 5V7.5C11.375 10.215 10.215 11.375 7.5 11.375Z" fill="#034687"/>
<path d="M11 5.37499H9C7.29 5.37499 6.625 4.70999 6.625 2.99999V0.999994C6.625 0.849994 6.715 0.709994 6.855 0.654994C6.995 0.594994 7.155 0.629994 7.265 0.734994L11.265 4.73499C11.37 4.83999 11.405 5.00499 11.345 5.14499C11.285 5.28499 11.15 5.37499 11 5.37499ZM7.375 1.90499V2.99999C7.375 4.28999 7.71 4.62499 9 4.62499H10.095L7.375 1.90499Z" fill="#034687"/>
</svg>
