<svg width="16" height="16" viewBox="0 0 16 16" fill="none" xmlns="http://www.w3.org/2000/svg">
<path d="M7.99985 8.86666C7.91319 8.86666 7.82652 8.84667 7.74652 8.8L1.85986 5.39335C1.61986 5.25335 1.53985 4.94666 1.67985 4.70666C1.81985 4.46666 2.11985 4.38665 2.36651 4.52665L7.99985 7.78666L13.5999 4.54667C13.8399 4.40667 14.1465 4.49335 14.2865 4.72668C14.4265 4.96668 14.3399 5.27333 14.1065 5.41333L8.25986 8.8C8.1732 8.84 8.08652 8.86666 7.99985 8.86666Z" fill="#034687"/>
<path d="M8 14.9067C7.72667 14.9067 7.5 14.68 7.5 14.4067V8.36002C7.5 8.08669 7.72667 7.86002 8 7.86002C8.27333 7.86002 8.5 8.08669 8.5 8.36002V14.4067C8.5 14.68 8.27333 14.9067 8 14.9067Z" fill="#034687"/>
<path d="M7.99988 15.1667C7.41321 15.1667 6.82654 15.04 6.37321 14.78L2.81321 12.8067C1.84655 12.2733 1.08655 10.9867 1.08655 9.88V6.10664C1.08655 4.99998 1.84655 3.72001 2.81321 3.18001L6.37321 1.20666C7.27988 0.699994 8.70654 0.699994 9.61987 1.20666L13.1799 3.18001C14.1465 3.71334 14.9065 4.99998 14.9065 6.10664V9.88C14.9065 9.92667 14.9065 9.99332 14.8865 10.08C14.8465 10.2533 14.7199 10.3933 14.5532 10.4466C14.3865 10.5 14.1999 10.4667 14.0665 10.3467C13.3065 9.68001 12.1199 9.65334 11.3065 10.3C10.7932 10.7067 10.4932 11.3266 10.4932 11.9866C10.4932 12.38 10.5999 12.7667 10.8065 13.1C10.8599 13.1933 10.9132 13.2667 10.9732 13.3333C11.0732 13.4467 11.1132 13.6 11.0865 13.7467C11.0599 13.8933 10.9665 14.0267 10.8332 14.0933L9.61322 14.7667C9.16655 15.04 8.58654 15.1667 7.99988 15.1667ZM7.99988 1.83333C7.58654 1.83333 7.16654 1.92 6.86654 2.08666L3.30654 4.06001C2.65987 4.42001 2.09987 5.37331 2.09987 6.10664V9.88C2.09987 10.6133 2.66654 11.5733 3.30654 11.9267L6.86654 13.9C7.4732 14.24 8.53321 14.24 9.13987 13.9L9.88653 13.4866C9.63987 13.04 9.50655 12.52 9.50655 11.9866C9.50655 11.0133 9.93988 10.1133 10.6932 9.51334C11.6065 8.78667 12.8999 8.63332 13.9132 9.07332V6.10001C13.9132 5.36668 13.3465 4.40667 12.7065 4.05334L9.14654 2.07999C8.83321 1.91999 8.41321 1.83333 7.99988 1.83333Z" fill="#034687"/>
<path d="M12.6667 15.1667C10.92 15.1667 9.5 13.7467 9.5 12C9.5 11.0267 9.93333 10.1267 10.6867 9.52665C11.2467 9.07999 11.9533 8.83334 12.6667 8.83334C14.4133 8.83334 15.8333 10.2533 15.8333 12C15.8333 12.9067 15.44 13.7733 14.7533 14.3733C14.1733 14.8867 13.4333 15.1667 12.6667 15.1667ZM12.6667 9.83334C12.1733 9.83334 11.7067 9.99998 11.3133 10.3133C10.8 10.72 10.5 11.34 10.5 12C10.5 13.1933 11.4733 14.1667 12.6667 14.1667C13.1867 14.1667 13.6933 13.9733 14.1 13.6267C14.5667 13.2133 14.8333 12.6267 14.8333 12C14.8333 10.8067 13.86 9.83334 12.6667 9.83334Z" fill="#034687"/>
<path d="M11.9999 13.1667C11.8332 13.1667 11.6665 13.08 11.5732 12.9267C11.4332 12.6867 11.5066 12.38 11.7466 12.24L12.3399 11.8867V11.1667C12.3399 10.8933 12.5666 10.6667 12.8399 10.6667C13.1132 10.6667 13.3399 10.8933 13.3399 11.1667V12.1667C13.3399 12.34 13.2466 12.5067 13.0999 12.5933L12.2666 13.0933C12.1732 13.1467 12.0866 13.1667 11.9999 13.1667Z" fill="#034687"/>
</svg>
