<svg width="20" height="21" viewBox="0 0 20 21" fill="none" xmlns="http://www.w3.org/2000/svg">
<path d="M10 19.3217C5.3345 19.3217 1.54169 15.5289 1.54169 10.8633C1.54169 6.19781 5.3345 2.405 10 2.405C14.6655 2.405 18.4584 6.19781 18.4584 10.8633C18.4584 15.5289 14.6655 19.3217 10 19.3217ZM10 2.655C5.47388 2.655 1.79169 6.33719 1.79169 10.8633C1.79169 15.3895 5.47388 19.0717 10 19.0717C14.5262 19.0717 18.2084 15.3895 18.2084 10.8633C18.2084 6.33719 14.5262 2.655 10 2.655Z" fill="#F5631A" stroke="#F5631A"/>
<path d="M7.50001 18.9883H6.66668C6.32501 18.9883 6.04168 18.705 6.04168 18.3633C6.04168 18.0217 6.30835 17.7467 6.65001 17.7383C5.34168 13.2717 5.34168 8.45501 6.65001 3.98834C6.30835 3.98001 6.04168 3.70501 6.04168 3.36334C6.04168 3.02168 6.32501 2.73834 6.66668 2.73834H7.50001C7.70001 2.73834 7.89168 2.83834 8.00835 2.99668C8.12501 3.16334 8.15835 3.37168 8.09168 3.56334C6.52501 8.27168 6.52501 13.455 8.09168 18.1717C8.15835 18.3633 8.12501 18.5717 8.00835 18.7383C7.89168 18.8883 7.70001 18.9883 7.50001 18.9883Z" fill="#F5631A" fill-opacity="0.4"/>
<path d="M12.5 18.9883C12.4333 18.9883 12.3667 18.98 12.3 18.955C11.975 18.8467 11.7917 18.4883 11.9083 18.1633C13.475 13.455 13.475 8.27166 11.9083 3.555C11.8 3.23 11.975 2.87166 12.3 2.76333C12.6333 2.655 12.9833 2.83 13.0917 3.155C14.75 8.12166 14.75 13.5883 13.0917 18.5467C13.0083 18.8217 12.7583 18.9883 12.5 18.9883Z" fill="#F5631A" fill-opacity="0.4"/>
<path d="M10 15.1967C7.675 15.1967 5.35833 14.8717 3.125 14.2133C3.11667 14.5467 2.84167 14.8217 2.5 14.8217C2.15833 14.8217 1.875 14.5383 1.875 14.1967V13.3633C1.875 13.1633 1.975 12.9717 2.13333 12.855C2.3 12.7383 2.50833 12.705 2.7 12.7717C7.40833 14.3383 12.6 14.3383 17.3083 12.7717C17.5 12.705 17.7083 12.7383 17.875 12.855C18.0417 12.9717 18.1333 13.1633 18.1333 13.3633V14.1967C18.1333 14.5383 17.85 14.8217 17.5083 14.8217C17.1667 14.8217 16.8917 14.555 16.8833 14.2133C14.6417 14.8717 12.325 15.1967 10 15.1967Z" fill="#F5631A" fill-opacity="0.4"/>
<path d="M17.5 8.98834C17.4334 8.98834 17.3667 8.98001 17.3 8.95501C12.5917 7.38834 7.40002 7.38834 2.69169 8.95501C2.35836 9.06334 2.00836 8.88834 1.90002 8.56334C1.80002 8.23001 1.97502 7.88001 2.30002 7.77167C7.26669 6.11334 12.7334 6.11334 17.6917 7.77167C18.0167 7.88001 18.2 8.23834 18.0834 8.56334C18.0084 8.82167 17.7584 8.98834 17.5 8.98834Z" fill="#F5631A" fill-opacity="0.4"/>
</svg>
