<svg width="40" height="40" viewBox="0 0 40 40" fill="none" xmlns="http://www.w3.org/2000/svg">
<circle opacity="0.05" cx="20" cy="20" r="20" fill="#F5631A"/>
<path d="M20 29.0951C15.0583 29.0951 11.0416 25.0785 11.0416 20.1368C11.0416 15.1951 15.0583 11.1785 20 11.1785C24.9416 11.1785 28.9583 15.1951 28.9583 20.1368C28.9583 25.0785 24.9416 29.0951 20 29.0951ZM20 12.4285C15.75 12.4285 12.2916 15.8868 12.2916 20.1368C12.2916 24.3868 15.75 27.8451 20 27.8451C24.25 27.8451 27.7083 24.3868 27.7083 20.1368C27.7083 15.8868 24.25 12.4285 20 12.4285Z" fill="#F5631A"/>
<path opacity="0.4" d="M20 21.5951C19.6583 21.5951 19.375 21.3118 19.375 20.9701V16.8035C19.375 16.4618 19.6583 16.1785 20 16.1785C20.3417 16.1785 20.625 16.4618 20.625 16.8035V20.9701C20.625 21.3118 20.3417 21.5951 20 21.5951Z" fill="#F5631A"/>
<path opacity="0.4" d="M20 24.3034C19.8916 24.3034 19.7833 24.2784 19.6833 24.2367C19.5833 24.195 19.4916 24.1367 19.4083 24.0617C19.3333 23.9784 19.275 23.895 19.2333 23.7867C19.1916 23.6867 19.1666 23.5784 19.1666 23.47C19.1666 23.3617 19.1916 23.2534 19.2333 23.1534C19.275 23.0534 19.3333 22.9617 19.4083 22.8784C19.4916 22.8034 19.5833 22.745 19.6833 22.7034C19.8833 22.62 20.1166 22.62 20.3166 22.7034C20.4166 22.745 20.5083 22.8034 20.5916 22.8784C20.6666 22.9617 20.725 23.0534 20.7666 23.1534C20.8083 23.2534 20.8333 23.3617 20.8333 23.47C20.8333 23.5784 20.8083 23.6867 20.7666 23.7867C20.725 23.895 20.6666 23.9784 20.5916 24.0617C20.5083 24.1367 20.4166 24.195 20.3166 24.2367C20.2166 24.2784 20.1083 24.3034 20 24.3034Z" fill="#F5631A"/>
</svg>
