<svg width="40" height="40" viewBox="0 0 40 40" fill="none" xmlns="http://www.w3.org/2000/svg">
<circle opacity="0.05" cx="20" cy="20" r="20" fill="#F5631A"/>
<path d="M19.9998 28.5367C19.7498 28.5367 19.4998 28.4783 19.2915 28.3616C17.7332 27.5116 14.9998 26.6116 13.2831 26.3866L13.0415 26.3533C11.9498 26.22 11.0498 25.195 11.0498 24.0866V14.02C11.0498 13.3616 11.3081 12.7617 11.7831 12.3283C12.2581 11.895 12.8748 11.6866 13.5248 11.745C15.3498 11.895 18.1165 12.8117 19.6831 13.7867L19.8831 13.9033C19.9415 13.9283 20.0665 13.9367 20.1165 13.9033L20.2498 13.82C20.8081 13.47 21.5081 13.1283 22.2748 12.82C22.4664 12.745 22.6831 12.77 22.8581 12.8866C23.0331 13.0033 23.1331 13.195 23.1331 13.4033V15.6366L23.8248 15.1783C24.0332 15.0366 24.3081 15.0366 24.5164 15.1783L25.2081 15.6366V12.4533C25.2081 12.1533 25.4248 11.895 25.7165 11.8366C25.9581 11.795 26.1998 11.7616 26.4165 11.745C26.4331 11.745 26.4998 11.745 26.5165 11.745C27.1248 11.695 27.7498 11.9033 28.2165 12.3367C28.6915 12.77 28.9498 13.37 28.9498 14.0283V24.0866C28.9498 25.2033 28.0498 26.22 26.9498 26.3533L26.6748 26.3866C24.9581 26.6116 22.2081 27.52 20.6831 28.3616C20.4998 28.4783 20.2498 28.5367 19.9998 28.5367ZM13.3164 12.9783C13.0498 12.9783 12.8081 13.07 12.6165 13.245C12.4081 13.4366 12.2915 13.7116 12.2915 14.02V24.0866C12.2915 24.5783 12.7165 25.0533 13.1915 25.12L13.4415 25.1533C15.3165 25.4033 18.1915 26.345 19.8581 27.2616C19.9331 27.295 20.0414 27.3033 20.0831 27.2867C21.7581 26.3617 24.6415 25.4117 26.5248 25.1617L26.8081 25.1283C27.2831 25.07 27.7081 24.5866 27.7081 24.095V14.0366C27.7081 13.7283 27.5915 13.4616 27.3831 13.2616C27.1748 13.07 26.8832 12.9783 26.5832 12.995C26.5582 12.995 26.4831 12.995 26.4665 12.995V16.8033C26.4665 17.0366 26.3415 17.245 26.1331 17.3533C25.9248 17.4616 25.6832 17.4533 25.4915 17.32L24.1748 16.445L22.8581 17.32C22.6665 17.445 22.4248 17.4616 22.2164 17.3533C22.0164 17.245 21.8831 17.0366 21.8831 16.8033V14.3617C21.5248 14.5367 21.1998 14.7117 20.9164 14.8783L20.7831 14.9616C20.3248 15.245 19.6748 15.245 19.2331 14.97L19.0332 14.845C17.6248 13.9617 15.0581 13.1116 13.4248 12.9783C13.3831 12.9783 13.3498 12.9783 13.3164 12.9783Z" fill="#F5631A"/>
<path opacity="0.4" d="M20 27.8367C19.6583 27.8367 19.375 27.5533 19.375 27.2117V14.7117C19.375 14.37 19.6583 14.0867 20 14.0867C20.3417 14.0867 20.625 14.37 20.625 14.7117V27.2117C20.625 27.5617 20.3417 27.8367 20 27.8367Z" fill="#F5631A"/>
<path d="M25.8333 17.4284C25.7083 17.4284 25.5917 17.395 25.4833 17.32L24.1667 16.445L22.85 17.32C22.6583 17.445 22.4167 17.4617 22.2084 17.3534C22.0084 17.245 21.875 17.0367 21.875 16.8034V13.4034C21.875 13.145 22.0333 12.92 22.2666 12.82C23.4166 12.3617 24.675 12.0034 25.7333 11.8367C25.9167 11.8034 26.1 11.8617 26.2417 11.9784C26.3833 12.0951 26.4583 12.2701 26.4583 12.4534V16.8034C26.4583 17.0367 26.3333 17.245 26.125 17.3534C26.0333 17.4034 25.9333 17.4284 25.8333 17.4284ZM24.1667 15.07C24.2833 15.07 24.4083 15.1034 24.5167 15.1784L25.2083 15.6367V13.2117C24.5417 13.3617 23.8167 13.5784 23.125 13.8367V15.6367L23.8167 15.1784C23.925 15.1034 24.05 15.07 24.1667 15.07Z" fill="#F5631A"/>
</svg>
