<svg width="20" height="21" viewBox="0 0 20 21" fill="none" xmlns="http://www.w3.org/2000/svg">
<path d="M9.99996 19.0951C5.05829 19.0951 1.04163 15.0785 1.04163 10.1368C1.04163 5.19513 5.05829 1.17847 9.99996 1.17847C14.9416 1.17847 18.9583 5.19513 18.9583 10.1368C18.9583 15.0785 14.9416 19.0951 9.99996 19.0951ZM9.99996 2.42847C5.74996 2.42847 2.29163 5.8868 2.29163 10.1368C2.29163 14.3868 5.74996 17.8451 9.99996 17.8451C14.25 17.8451 17.7083 14.3868 17.7083 10.1368C17.7083 5.8868 14.25 2.42847 9.99996 2.42847Z" fill="#151B25"/>
<path d="M8.94994 13.7033C8.79161 13.7033 8.63328 13.6449 8.50828 13.5199C8.26661 13.2783 8.26661 12.8783 8.50828 12.6366L11.0083 10.1366L8.50828 7.6366C8.26661 7.39494 8.26661 6.99494 8.50828 6.75327C8.74994 6.5116 9.14994 6.5116 9.39161 6.75327L12.3333 9.69494C12.5749 9.93661 12.5749 10.3366 12.3333 10.5783L9.39161 13.5199C9.26661 13.6449 9.10828 13.7033 8.94994 13.7033Z" fill="#151B25"/>
</svg>
