<svg width="40" height="40" viewBox="0 0 40 40" fill="none" xmlns="http://www.w3.org/2000/svg">
<circle opacity="0.05" cx="20" cy="20" r="20" fill="#F5631A"/>
<path opacity="0.4" d="M22.5 24.8242C22.4387 26.3675 21.1526 27.6779 19.4297 27.6357C19.0289 27.6259 18.5334 27.4862 17.5426 27.2067C15.158 26.5341 13.088 25.4037 12.5913 22.8713C12.5 22.4058 12.5 21.882 12.5 20.8344L12.5 19.439C12.5 18.3914 12.5 17.8676 12.5913 17.4021C13.088 14.8698 15.158 13.7394 17.5426 13.0667C18.5334 12.7873 19.0289 12.6475 19.4297 12.6377C21.1526 12.5956 22.4387 13.9059 22.5 15.4492" stroke="#F5631A" stroke-width="1.5" stroke-linecap="round"/>
<path d="M27.5 20.1368H18.3334M27.5 20.1368C27.5 19.5533 25.8381 18.4631 25.4167 18.0535M27.5 20.1368C27.5 20.7203 25.8381 21.8105 25.4167 22.2201" stroke="#F5631A" stroke-width="1.5" stroke-linecap="round" stroke-linejoin="round"/>
</svg>
