<svg width="40" height="40" viewBox="0 0 40 40" fill="none" xmlns="http://www.w3.org/2000/svg">
<circle opacity="0.05" cx="20" cy="20" r="20" fill="#F5631A"/>
<path d="M20 28.5951C15.3344 28.5951 11.5416 24.8023 11.5416 20.1368C11.5416 15.4713 15.3344 11.6785 20 11.6785C24.6655 11.6785 28.4583 15.4713 28.4583 20.1368C28.4583 24.8023 24.6655 28.5951 20 28.5951ZM20 11.9285C15.4738 11.9285 11.7916 15.6107 11.7916 20.1368C11.7916 24.6629 15.4738 28.3451 20 28.3451C24.5261 28.3451 28.2083 24.6629 28.2083 20.1368C28.2083 15.6107 24.5261 11.9285 20 11.9285Z" fill="#F5631A" stroke="#F5631A"/>
<path d="M17.5 28.2617H16.6666C16.325 28.2617 16.0416 27.9784 16.0416 27.6367C16.0416 27.2951 16.3083 27.0201 16.65 27.0117C15.3416 22.5451 15.3416 17.7284 16.65 13.2617C16.3083 13.2534 16.0416 12.9784 16.0416 12.6367C16.0416 12.2951 16.325 12.0117 16.6666 12.0117H17.5C17.7 12.0117 17.8916 12.1117 18.0083 12.2701C18.125 12.4367 18.1583 12.6451 18.0916 12.8367C16.525 17.5451 16.525 22.7284 18.0916 27.4451C18.1583 27.6367 18.125 27.8451 18.0083 28.0117C17.8916 28.1617 17.7 28.2617 17.5 28.2617Z" fill="#F5631A" fill-opacity="0.4"/>
<path d="M22.5 28.2617C22.4333 28.2617 22.3667 28.2534 22.3 28.2284C21.975 28.12 21.7917 27.7617 21.9083 27.4367C23.475 22.7284 23.475 17.545 21.9083 12.8284C21.8 12.5034 21.975 12.145 22.3 12.0367C22.6333 11.9284 22.9833 12.1034 23.0917 12.4284C24.75 17.395 24.75 22.8617 23.0917 27.82C23.0083 28.095 22.7583 28.2617 22.5 28.2617Z" fill="#F5631A" fill-opacity="0.4"/>
<path d="M20 24.47C17.675 24.47 15.3583 24.145 13.125 23.4866C13.1167 23.82 12.8417 24.095 12.5 24.095C12.1583 24.095 11.875 23.8116 11.875 23.47V22.6366C11.875 22.4366 11.975 22.245 12.1333 22.1283C12.3 22.0116 12.5083 21.9783 12.7 22.045C17.4083 23.6116 22.6 23.6116 27.3083 22.045C27.5 21.9783 27.7083 22.0116 27.875 22.1283C28.0417 22.245 28.1333 22.4366 28.1333 22.6366V23.47C28.1333 23.8116 27.85 24.095 27.5083 24.095C27.1667 24.095 26.8917 23.8283 26.8833 23.4866C24.6417 24.145 22.325 24.47 20 24.47Z" fill="#F5631A" fill-opacity="0.4"/>
<path d="M27.5 18.2617C27.4334 18.2617 27.3667 18.2534 27.3 18.2284C22.5917 16.6617 17.4 16.6617 12.6917 18.2284C12.3584 18.3367 12.0084 18.1617 11.9 17.8367C11.8 17.5034 11.975 17.1534 12.3 17.045C17.2667 15.3867 22.7334 15.3867 27.6917 17.045C28.0167 17.1534 28.2 17.5117 28.0834 17.8367C28.0084 18.095 27.7584 18.2617 27.5 18.2617Z" fill="#F5631A" fill-opacity="0.4"/>
</svg>
