<svg width="40" height="40" viewBox="0 0 40 40" fill="none" xmlns="http://www.w3.org/2000/svg">
<circle opacity="0.05" cx="20" cy="20" r="20" fill="#F5631A"/>
<path d="M19.9998 29.0951C19.7998 29.0951 19.5998 29.0701 19.4082 29.0117C15.0832 27.8201 11.9498 23.7784 11.9498 19.395V15.7367C11.9498 14.8034 12.6248 13.7951 13.4915 13.4367L18.1332 11.5367C19.3415 11.0451 20.6665 11.0451 21.8665 11.5367L26.5082 13.4367C27.3748 13.7951 28.0498 14.8034 28.0498 15.7367V19.395C28.0498 23.77 24.9082 27.8117 20.5915 29.0117C20.3998 29.0701 20.1998 29.0951 19.9998 29.0951ZM19.9998 12.4284C19.5248 12.4284 19.0582 12.5201 18.6082 12.7034L13.9665 14.6034C13.5665 14.77 13.1998 15.3117 13.1998 15.745V19.4034C13.1998 23.2284 15.9498 26.7617 19.7415 27.8117C19.9082 27.8617 20.0915 27.8617 20.2582 27.8117C24.0498 26.7617 26.7998 23.2284 26.7998 19.4034V15.745C26.7998 15.3117 26.4332 14.77 26.0332 14.6034L21.3915 12.7034C20.9415 12.5201 20.4748 12.4284 19.9998 12.4284Z" fill="#F5631A"/>
<path opacity="0.4" d="M20 21.1783C18.7334 21.1783 17.7084 20.1533 17.7084 18.8866C17.7084 17.62 18.7334 16.595 20 16.595C21.2667 16.595 22.2917 17.62 22.2917 18.8866C22.2917 20.1533 21.2667 21.1783 20 21.1783ZM20 17.845C19.425 17.845 18.9584 18.3116 18.9584 18.8866C18.9584 19.4616 19.425 19.9283 20 19.9283C20.575 19.9283 21.0417 19.4616 21.0417 18.8866C21.0417 18.3116 20.575 17.845 20 17.845Z" fill="#F5631A"/>
<path opacity="0.4" d="M20 23.6785C19.6583 23.6785 19.375 23.3951 19.375 23.0535V20.5535C19.375 20.2118 19.6583 19.9285 20 19.9285C20.3417 19.9285 20.625 20.2118 20.625 20.5535V23.0535C20.625 23.3951 20.3417 23.6785 20 23.6785Z" fill="#F5631A"/>
</svg>
