<svg width="16" height="16" viewBox="0 0 16 16" fill="none" xmlns="http://www.w3.org/2000/svg">
<path d="M5.33325 3.83334C5.05992 3.83334 4.83325 3.60667 4.83325 3.33334V1.33334C4.83325 1.06 5.05992 0.833336 5.33325 0.833336C5.60659 0.833336 5.83325 1.06 5.83325 1.33334V3.33334C5.83325 3.60667 5.60659 3.83334 5.33325 3.83334Z" fill="#034687"/>
<path d="M10.6667 3.83334C10.3934 3.83334 10.1667 3.60667 10.1667 3.33334V1.33334C10.1667 1.06 10.3934 0.833336 10.6667 0.833336C10.9401 0.833336 11.1667 1.06 11.1667 1.33334V3.33334C11.1667 3.60667 10.9401 3.83334 10.6667 3.83334Z" fill="#034687"/>
<path d="M13.6666 6.55997H2.33325C2.05992 6.55997 1.83325 6.33331 1.83325 6.05997C1.83325 5.78664 2.05992 5.55997 2.33325 5.55997H13.6666C13.9399 5.55997 14.1666 5.78664 14.1666 6.05997C14.1666 6.33331 13.9399 6.55997 13.6666 6.55997Z" fill="#034687"/>
<path d="M10.6667 15.1667H5.33333C2.9 15.1667 1.5 13.7667 1.5 11.3333V5.66667C1.5 3.23334 2.9 1.83334 5.33333 1.83334H10.6667C13.1 1.83334 14.5 3.23334 14.5 5.66667V11.3333C14.5 13.7667 13.1 15.1667 10.6667 15.1667ZM5.33333 2.83334C3.42667 2.83334 2.5 3.76 2.5 5.66667V11.3333C2.5 13.24 3.42667 14.1667 5.33333 14.1667H10.6667C12.5733 14.1667 13.5 13.24 13.5 11.3333V5.66667C13.5 3.76 12.5733 2.83334 10.6667 2.83334H5.33333Z" fill="#034687"/>
<path d="M5.66667 9.66668C5.58 9.66668 5.49333 9.64669 5.41333 9.61335C5.33333 9.58002 5.26001 9.53334 5.19334 9.47334C5.13334 9.40667 5.08666 9.33335 5.05332 9.25335C5.01999 9.17335 5 9.08668 5 9.00001C5 8.82668 5.07334 8.65335 5.19334 8.52668C5.26001 8.46668 5.33333 8.42 5.41333 8.38667C5.53333 8.33333 5.66667 8.32 5.80001 8.34667C5.84001 8.35334 5.88 8.36667 5.92 8.38667C5.96 8.4 6 8.42002 6.04 8.44669C6.07333 8.47335 6.10666 8.50002 6.13999 8.52668C6.16666 8.56002 6.19999 8.59335 6.21999 8.62668C6.24666 8.66668 6.26668 8.70667 6.28001 8.74667C6.30001 8.78667 6.31334 8.82667 6.32001 8.86667C6.32667 8.91334 6.33333 8.95334 6.33333 9.00001C6.33333 9.17334 6.25999 9.34667 6.13999 9.47334C6.01333 9.59334 5.84 9.66668 5.66667 9.66668Z" fill="#034687"/>
<path d="M7.99992 9.66667C7.82659 9.66667 7.65326 9.59333 7.52659 9.47333C7.49992 9.43999 7.47326 9.40666 7.44659 9.37333C7.41993 9.33333 7.39991 9.29334 7.38658 9.25334C7.36658 9.21334 7.35324 9.17334 7.34658 9.13334C7.33991 9.08667 7.33325 9.04667 7.33325 9C7.33325 8.91333 7.35324 8.82666 7.38658 8.74666C7.41991 8.66666 7.46659 8.59334 7.52659 8.52667C7.71326 8.34001 8.01326 8.27999 8.25326 8.38666C8.33992 8.41999 8.40658 8.46667 8.47325 8.52667C8.59325 8.65334 8.66659 8.82667 8.66659 9C8.66659 9.04667 8.65993 9.08667 8.65326 9.13334C8.64659 9.17334 8.63326 9.21334 8.61326 9.25334C8.59993 9.29334 8.57991 9.33333 8.55324 9.37333C8.52658 9.40666 8.49991 9.43999 8.47325 9.47333C8.40658 9.53333 8.33992 9.58001 8.25326 9.61334C8.17326 9.64667 8.08659 9.66667 7.99992 9.66667Z" fill="#034687"/>
<path d="M5.66667 12C5.58 12 5.49333 11.98 5.41333 11.9467C5.33333 11.9133 5.26001 11.8667 5.19334 11.8067C5.13334 11.74 5.08666 11.6733 5.05332 11.5867C5.01999 11.5067 5 11.42 5 11.3333C5 11.16 5.07334 10.9867 5.19334 10.86C5.26001 10.8 5.33333 10.7533 5.41333 10.72C5.66 10.6133 5.95333 10.6733 6.13999 10.86C6.16666 10.8933 6.19999 10.9267 6.21999 10.96C6.24666 11 6.26668 11.04 6.28001 11.08C6.30001 11.12 6.31334 11.16 6.32001 11.2067C6.32667 11.2467 6.33333 11.2933 6.33333 11.3333C6.33333 11.5067 6.25999 11.68 6.13999 11.8067C6.01333 11.9267 5.84 12 5.66667 12Z" fill="#034687"/>
</svg>
