<svg width="36" height="36" viewBox="0 0 36 36" fill="none" xmlns="http://www.w3.org/2000/svg">
<rect width="36" height="36" rx="8" fill="#F5631A" fill-opacity="0.1"/>
<path d="M17.9998 19.3C17.8698 19.3 17.7398 19.27 17.6198 19.2L8.78985 14.09C8.42985 13.88 8.30983 13.42 8.51983 13.06C8.72983 12.7 9.17983 12.58 9.54983 12.79L17.9998 17.68L26.3998 12.82C26.7598 12.61 27.2198 12.74 27.4298 13.09C27.6398 13.45 27.5098 13.91 27.1598 14.12L18.3899 19.2C18.2599 19.26 18.1298 19.3 17.9998 19.3Z" fill="#F5631A"/>
<path d="M18 28.36C17.59 28.36 17.25 28.02 17.25 27.61V18.54C17.25 18.13 17.59 17.79 18 17.79C18.41 17.79 18.75 18.13 18.75 18.54V27.61C18.75 28.02 18.41 28.36 18 28.36Z" fill="#F5631A"/>
<path d="M18.0001 28.75C17.1201 28.75 16.2501 28.56 15.5601 28.18L10.2201 25.21C8.77012 24.41 7.64014 22.48 7.64014 20.82V15.17C7.64014 13.51 8.77012 11.59 10.2201 10.78L15.5601 7.82C16.9301 7.06 19.0701 7.06 20.4401 7.82L25.7801 10.79C27.2301 11.59 28.3601 13.52 28.3601 15.18V20.83C28.3601 22.49 27.2301 24.41 25.7801 25.22L20.4401 28.18C19.7501 28.56 18.8801 28.75 18.0001 28.75ZM18.0001 8.74999C17.3701 8.74999 16.7501 8.88 16.2901 9.13L10.9501 12.1C9.99013 12.64 9.14014 14.07 9.14014 15.18V20.83C9.14014 21.93 9.99013 23.37 10.9501 23.91L16.2901 26.88C17.2001 27.39 18.8001 27.39 19.7101 26.88L25.0501 23.91C26.0101 23.37 26.8601 21.94 26.8601 20.83V15.18C26.8601 14.08 26.0101 12.64 25.0501 12.1L19.7101 9.13C19.2501 8.88 18.6301 8.74999 18.0001 8.74999Z" fill="#F5631A"/>
<path d="M23.0002 19.99C22.5902 19.99 22.2502 19.65 22.2502 19.24V16.0201L13.1302 10.7601C12.7702 10.5501 12.6502 10.09 12.8602 9.74005C13.0702 9.38005 13.5202 9.26003 13.8802 9.47003L23.3702 14.9501C23.6002 15.0801 23.7502 15.33 23.7502 15.6V19.2601C23.7502 19.6501 23.4102 19.99 23.0002 19.99Z" fill="#F5631A"/>
</svg>
