<svg width="16" height="16" viewBox="0 0 16 16" fill="none" xmlns="http://www.w3.org/2000/svg">
<path d="M3.83121 9.83411C3.73918 9.83435 3.66475 9.90911 3.66491 10.0011C3.66506 10.0932 3.73976 10.1677 3.83179 10.1676C3.92381 10.1675 3.99838 10.0929 3.99838 10.0008C3.99818 9.90867 3.92338 9.83406 3.8312 9.83411" stroke="#034687" stroke-linecap="round" stroke-linejoin="round"/>
<path d="M6.66619 9.00043C7.2187 9.00043 7.6666 9.44833 7.6666 10.0008C7.6666 10.5534 7.2187 11.0013 6.66619 11.0013C6.11367 11.0013 5.66577 10.5534 5.66577 10.0008C5.66577 9.44833 6.11367 9.00043 6.66619 9.00043" stroke="#034687" stroke-linecap="round" stroke-linejoin="round"/>
<path fill-rule="evenodd" clip-rule="evenodd" d="M11.3348 8.00001V12.0017C11.3348 12.7384 10.7376 13.3356 10.0009 13.3356H3.33071C2.97704 13.3355 2.63789 13.1949 2.38788 12.9447C2.13786 12.6946 1.99746 12.3554 1.99756 12.0017V7.99928C1.99765 7.64561 2.13824 7.30646 2.3884 7.05644C2.63855 6.80643 2.97778 6.66602 3.33145 6.66612H10.0016C10.3553 6.66622 10.6944 6.80681 10.9445 7.05696C11.1945 7.30711 11.3349 7.64634 11.3348 8.00001Z" stroke="#034687" stroke-linecap="round" stroke-linejoin="round"/>
<path d="M9.50114 10.1676C9.59317 10.1673 9.6676 10.0926 9.66744 10.0006C9.66729 9.90853 9.59259 9.83403 9.50056 9.83411C9.40854 9.83419 9.33397 9.90882 9.33397 10.0008C9.33417 10.093 9.40897 10.1676 9.50115 10.1676" stroke="#034687" stroke-linecap="round" stroke-linejoin="round"/>
<path d="M4.13037 6.66611L4.93759 3.65352L4.93779 3.65286C5.02942 3.31125 5.25299 3.02004 5.55934 2.84328C5.86568 2.66652 6.22969 2.6187 6.57129 2.71033L13.0134 4.43646L13.0141 4.43667C13.3557 4.52829 13.6469 4.75187 13.8237 5.05821C14.0004 5.36455 14.0482 5.72857 13.9566 6.07016L12.9209 9.93547C12.7345 10.6279 12.0333 11.0483 11.3347 10.8864" stroke="#034687" stroke-linecap="round" stroke-linejoin="round"/>
</svg>
