<svg width="16" height="16" viewBox="0 0 16 16" fill="none" xmlns="http://www.w3.org/2000/svg">
<path d="M9.33263 3.33333C9.33329 2.59667 7.83996 2 5.99996 2C4.15996 2 2.66796 2.59733 2.66663 3.33333C2.66663 4.07 4.15863 4.66667 5.99996 4.66667C7.84129 4.66667 9.33329 4.07 9.33329 3.33333" stroke="#034687" stroke-linecap="round" stroke-linejoin="round"/>
<path d="M9.33333 3.33333V8.50666" stroke="#034687" stroke-linecap="round" stroke-linejoin="round"/>
<path d="M2.66736 6C2.66736 6.73667 4.15936 7.33333 6.00069 7.33333C7.84202 7.33333 9.33402 6.73667 9.33402 6" stroke="#034687" stroke-linecap="round" stroke-linejoin="round"/>
<path d="M13.1213 8.87867C14.2926 10.05 14.2926 11.95 13.1213 13.1213C11.95 14.2927 10.05 14.2927 8.87862 13.1213C7.70729 11.95 7.70729 10.05 8.87862 8.87867C10.05 7.70733 11.95 7.70733 13.1213 8.87867" stroke="#034687" stroke-linecap="round" stroke-linejoin="round"/>
<path d="M8.33669 9.61666C7.73536 9.85333 6.91069 10 6.00002 10C4.15936 10 2.66736 9.40333 2.66736 8.66666" stroke="#034687" stroke-linecap="round" stroke-linejoin="round"/>
<path d="M8.29662 12.296C7.69863 12.5247 6.89263 12.6667 5.99996 12.6667C4.15929 12.6667 2.66729 12.07 2.66663 11.3333V3.33333" stroke="#034687" stroke-linecap="round" stroke-linejoin="round"/>
</svg>
