<svg width="24" height="24" viewBox="0 0 24 24" fill="none" xmlns="http://www.w3.org/2000/svg">
<path d="M13.0004 8.99874H17.002" stroke="#8F9098" stroke-width="1.5" stroke-linecap="round" stroke-linejoin="round"/>
<path d="M6.99792 8.72458L7.91731 9.55292L9.76808 7.88623" stroke="#8F9098" stroke-width="1.5" stroke-linecap="round" stroke-linejoin="round"/>
<path d="M9.99913 20.0036H7.9983C5.23572 20.0036 2.99622 17.7641 2.99622 15.0015V6.99818C2.99622 4.2356 5.23572 1.99609 7.9983 1.99609H16.0016C17.3283 1.99609 18.6006 2.5231 19.5386 3.46117C20.4767 4.39924 21.0037 5.67154 21.0037 6.99818V9.99943" stroke="#8F9098" stroke-width="1.5" stroke-linecap="round" stroke-linejoin="round"/>
<path d="M6.99792 13.727L7.91731 14.5554L9.76808 12.8887" stroke="#8F9098" stroke-width="1.5" stroke-linecap="round" stroke-linejoin="round"/>
<path d="M14.0009 13.9009V19.6037C14.0019 20.3769 15.5683 21.004 17.5018 21.004C19.4353 21.004 21.0018 20.3769 21.0028 19.6037V13.9009" stroke="#8F9098" stroke-width="1.5" stroke-linecap="round" stroke-linejoin="round"/>
<path d="M14.0018 16.752C14.0018 17.5252 15.5693 18.1523 17.5028 18.1523C19.4363 18.1523 21.0037 17.5252 21.0037 16.752" stroke="#8F9098" stroke-width="1.5" stroke-linecap="round" stroke-linejoin="round"/>
<path d="M14.0019 13.9009C14.0019 14.6741 15.5693 15.3013 17.5028 15.3013C19.4363 15.3013 21.0028 14.6741 21.0028 13.9009C21.0028 13.1267 19.4343 12.5005 17.5018 12.5005C15.5693 12.5005 14.0019 13.1277 14.0009 13.9009" stroke="#8F9098" stroke-width="1.5" stroke-linecap="round" stroke-linejoin="round"/>
</svg>
