<svg width="36" height="36" viewBox="0 0 36 36" fill="none" xmlns="http://www.w3.org/2000/svg">
<rect width="36" height="36" rx="8" fill="#F5631A" fill-opacity="0.1"/>
<path d="M19.0004 14.9987H23.002" stroke="#F5631A" stroke-width="1.5" stroke-linecap="round" stroke-linejoin="round"/>
<path d="M12.9979 14.7246L13.9173 15.553L15.7681 13.8863" stroke="#F5631A" stroke-width="1.5" stroke-linecap="round" stroke-linejoin="round"/>
<path d="M15.9991 26.0033H13.9983C11.2357 26.0033 8.99622 23.7638 8.99622 21.0013V12.9979C8.99622 10.2353 11.2357 7.99583 13.9983 7.99583H22.0016C23.3283 7.99583 24.6006 8.52284 25.5386 9.46091C26.4767 10.399 27.0037 11.6713 27.0037 12.9979V15.9992" stroke="#F5631A" stroke-width="1.5" stroke-linecap="round" stroke-linejoin="round"/>
<path d="M12.9979 19.7267L13.9173 20.5551L15.7681 18.8884" stroke="#F5631A" stroke-width="1.5" stroke-linecap="round" stroke-linejoin="round"/>
<path d="M20.0009 19.9006V25.6034C20.0019 26.3766 21.5683 27.0037 23.5018 27.0037C25.4353 27.0037 27.0018 26.3766 27.0028 25.6034V19.9006" stroke="#F5631A" stroke-width="1.5" stroke-linecap="round" stroke-linejoin="round"/>
<path d="M20.0018 22.752C20.0018 23.5252 21.5693 24.1524 23.5028 24.1524C25.4363 24.1524 27.0037 23.5252 27.0037 22.752" stroke="#F5631A" stroke-width="1.5" stroke-linecap="round" stroke-linejoin="round"/>
<path d="M20.0019 19.9006C20.0019 20.6738 21.5693 21.301 23.5028 21.301C25.4363 21.301 27.0028 20.6738 27.0028 19.9006C27.0028 19.1264 25.4343 18.5002 23.5018 18.5002C21.5693 18.5002 20.0019 19.1274 20.0009 19.9006" stroke="#F5631A" stroke-width="1.5" stroke-linecap="round" stroke-linejoin="round"/>
</svg>
