<svg width="16" height="16" viewBox="0 0 16 16" fill="none" xmlns="http://www.w3.org/2000/svg">
<path d="M10.0001 15.1667C9.82008 15.1667 9.65342 15.0667 9.56676 14.9133C9.48009 14.76 9.48008 14.5667 9.57342 14.4133L10.2734 13.2467C10.4134 13.0067 10.7201 12.9333 10.9601 13.0733C11.2001 13.2133 11.2734 13.52 11.1334 13.76L10.9534 14.06C12.7934 13.6267 14.1734 11.9733 14.1734 10C14.1734 9.72667 14.4001 9.5 14.6734 9.5C14.9467 9.5 15.1734 9.72667 15.1734 10C15.1667 12.8467 12.8468 15.1667 10.0001 15.1667Z" fill="#034687"/>
<path d="M1.33337 6.5C1.06004 6.5 0.833374 6.27334 0.833374 6C0.833374 3.15334 3.15337 0.833336 6.00004 0.833336C6.18004 0.833336 6.3467 0.933339 6.43337 1.08667C6.52004 1.24001 6.52004 1.43334 6.42671 1.58667L5.7267 2.75334C5.5867 2.99334 5.28004 3.06668 5.04004 2.92668C4.80004 2.78668 4.72671 2.47999 4.86671 2.23999L5.04671 1.93998C3.20671 2.37332 1.82671 4.02667 1.82671 6C1.83338 6.27334 1.60671 6.5 1.33337 6.5Z" fill="#034687"/>
<path d="M11.7866 4.99992C11.6999 4.99992 11.6133 4.97993 11.5333 4.93327L8.88659 3.3999C8.64659 3.2599 8.56658 2.95325 8.70658 2.71325C8.84658 2.47325 9.15325 2.39324 9.38659 2.53324L11.7866 3.91992L14.1666 2.53991C14.4066 2.39991 14.7133 2.48659 14.8466 2.71993C14.9866 2.95993 14.8999 3.26657 14.6666 3.40657L12.0333 4.92659C11.9599 4.97326 11.8732 4.99992 11.7866 4.99992Z" fill="#034687"/>
<path d="M11.7867 7.71326C11.5134 7.71326 11.2867 7.48659 11.2867 7.21326V4.49325C11.2867 4.21991 11.5134 3.99325 11.7867 3.99325C12.0601 3.99325 12.2867 4.21991 12.2867 4.49325V7.21326C12.2867 7.49326 12.0601 7.71326 11.7867 7.71326Z" fill="#034687"/>
<path d="M11.7866 7.8333C11.4799 7.8333 11.1666 7.76663 10.92 7.62663L9.31995 6.73995C8.79995 6.45329 8.40662 5.77998 8.40662 5.18665V3.49329C8.40662 2.89329 8.79995 2.22665 9.32662 1.93331L10.9266 1.04664C11.4199 0.773303 12.16 0.773303 12.66 1.04664L14.2599 1.93331C14.7799 2.21998 15.1733 2.89329 15.1733 3.48662V5.17998C15.1733 5.77998 14.7799 6.44662 14.2599 6.73328L12.66 7.61996C12.4 7.76663 12.0933 7.8333 11.7866 7.8333ZM11.4066 1.9133L9.80662 2.79997C9.60662 2.91331 9.40662 3.25328 9.40662 3.47995V5.1733C9.40662 5.40664 9.60662 5.74665 9.80662 5.85332L11.4066 6.74663C11.5999 6.85329 11.9733 6.85329 12.1666 6.74663L13.7666 5.85995C13.9666 5.74662 14.1666 5.40664 14.1666 5.17998V3.48662C14.1666 3.25329 13.9666 2.91331 13.7666 2.80665L12.1666 1.91997C11.9733 1.80663 11.5933 1.80663 11.4066 1.9133Z" fill="#034687"/>
<path d="M4.21335 12.3333C4.12668 12.3333 4.04001 12.3133 3.96001 12.2666L1.31334 10.7332C1.07334 10.5932 0.993341 10.2866 1.13334 10.0466C1.27334 9.80659 1.58001 9.72658 1.81334 9.86658L4.21335 11.2533L6.59334 9.87325C6.83334 9.73325 7.14001 9.81993 7.27335 10.0533C7.41335 10.2933 7.32668 10.5999 7.09334 10.7399L4.46001 12.2599C4.38668 12.3066 4.30001 12.3333 4.21335 12.3333Z" fill="#034687"/>
<path d="M4.21326 15.0466C3.93992 15.0466 3.71326 14.8199 3.71326 14.5466V11.8266C3.71326 11.5532 3.93992 11.3266 4.21326 11.3266C4.48659 11.3266 4.71326 11.5532 4.71326 11.8266V14.5466C4.71326 14.8266 4.49326 15.0466 4.21326 15.0466Z" fill="#034687"/>
<path d="M4.21338 15.1666C3.90671 15.1666 3.59338 15.1 3.34671 14.96L1.7467 14.0733C1.2267 13.7866 0.833374 13.1133 0.833374 12.52V10.8266C0.833374 10.2266 1.2267 9.55994 1.7467 9.27328L3.34671 8.38664C3.84004 8.11331 4.5867 8.11331 5.08004 8.38664L6.68004 9.27328C7.20004 9.55994 7.59337 10.2333 7.59337 10.8266V12.52C7.59337 13.12 7.20004 13.7866 6.67337 14.08L5.07337 14.9666C4.83337 15.1 4.52671 15.1666 4.21338 15.1666ZM3.83337 9.24663L2.23338 10.1333C2.03338 10.2466 1.83337 10.5866 1.83337 10.8133V12.5066C1.83337 12.74 2.03338 13.08 2.23338 13.1866L3.83337 14.0733C4.02671 14.18 4.40004 14.18 4.59337 14.0733L6.19337 13.1866C6.39337 13.0733 6.59337 12.7333 6.59337 12.5066V10.8133C6.59337 10.5799 6.39337 10.24 6.19337 10.1333L4.59337 9.23995C4.40671 9.13995 4.02671 9.13996 3.83337 9.24663Z" fill="#034687"/>
</svg>
