<svg width="16" height="16" viewBox="0 0 16 16" fill="none" xmlns="http://www.w3.org/2000/svg">
<path d="M7.99984 15.1667C7.21984 15.1667 6.49318 14.8667 5.94651 14.32L1.6865 10.06C1.13984 9.51335 0.839844 8.78001 0.839844 8.00667C0.839844 7.23334 1.13984 6.5 1.6865 5.95333L5.94651 1.69332C6.49318 1.14665 7.2265 0.84668 7.99984 0.84668C8.77317 0.84668 9.5065 1.14665 10.0532 1.69332L14.3132 5.95333C14.8598 6.5 15.1598 7.23334 15.1598 8.00667C15.1598 8.78001 14.8598 9.51335 14.3132 10.06L10.0532 14.32C9.5065 14.8667 8.77984 15.1667 7.99984 15.1667ZM7.99984 1.83333C7.4865 1.83333 7.00651 2.03334 6.65318 2.38668L2.39317 6.64665C2.03317 7.00665 1.83984 7.48666 1.83984 7.99333C1.83984 8.49999 2.03983 8.98667 2.39317 9.34001L6.65318 13.6C7.36651 14.3133 8.63316 14.3133 9.3465 13.6L13.6065 9.34001C13.9665 8.98001 14.1598 8.50666 14.1598 7.99333C14.1598 7.47999 13.9598 6.99998 13.6065 6.64665L9.3465 2.38668C8.99316 2.03334 8.51317 1.83333 7.99984 1.83333Z" fill="#034687"/>
<path d="M11.8333 12.3333C11.7067 12.3333 11.58 12.2867 11.48 12.1867L3.81333 4.52C3.62 4.32667 3.62 4.00663 3.81333 3.8133C4.00667 3.61996 4.32667 3.61996 4.52 3.8133L12.1867 11.48C12.38 11.6733 12.38 11.9933 12.1867 12.1867C12.0867 12.2867 11.96 12.3333 11.8333 12.3333Z" fill="#034687"/>
<path d="M4.16667 12.3333C4.04 12.3333 3.91333 12.2867 3.81333 12.1867C3.62 11.9933 3.62 11.6733 3.81333 11.48L11.48 3.8133C11.6733 3.61996 11.9933 3.61996 12.1867 3.8133C12.38 4.00663 12.38 4.32667 12.1867 4.52L4.52 12.1867C4.42 12.2867 4.29333 12.3333 4.16667 12.3333Z" fill="#034687"/>
</svg>
