<svg width="16" height="17" viewBox="0 0 16 17" fill="none" xmlns="http://www.w3.org/2000/svg">
<mask id="mask0_237_3188" style="mask-type:alpha" maskUnits="userSpaceOnUse" x="0" y="2" width="16" height="14">
<path fill-rule="evenodd" clip-rule="evenodd" d="M15.1463 3.45084C15.4717 3.1254 15.4717 2.59776 15.1463 2.27233C14.8208 1.9469 14.2932 1.9469 13.9678 2.27234L1.96803 14.2723C1.6426 14.5978 1.6426 15.1254 1.96804 15.4509C2.29348 15.7763 2.82112 15.7763 3.14655 15.4508L4.87279 13.7246C6.82003 14.4845 9.04857 14.5401 11.1491 13.7144C13.3673 12.8417 15.1273 11.089 16 8.8635C15.4301 7.42278 14.4966 6.19348 13.3285 5.26865L15.1463 3.45084ZM11.2876 7.30959L10.1431 8.45416C10.1687 8.58814 10.1818 8.72514 10.1818 8.8635C10.1818 9.44215 9.95195 9.99711 9.54278 10.4063C9.13361 10.8154 8.57865 11.0453 8 11.0453C7.86166 11.0453 7.72467 11.0322 7.5907 11.0066L6.44616 12.1512C6.92746 12.3786 7.45748 12.4999 8 12.4999C8.96442 12.4999 9.88935 12.1167 10.5713 11.4348C11.2532 10.7528 11.6364 9.82792 11.6364 8.8635C11.6364 8.32095 11.5151 7.79091 11.2876 7.30959ZM8 3.40896C8.92698 3.40896 9.82894 3.55902 10.6786 3.83948L9.11563 5.4025C8.75841 5.28734 8.38231 5.22714 8 5.22714C7.03558 5.22714 6.11065 5.61025 5.4287 6.2922C4.74675 6.97415 4.36364 7.89908 4.36364 8.8635C4.36364 9.24584 4.42385 9.62196 4.53902 9.97921L2.33337 12.1849C1.33244 11.3095 0.520477 10.1876 0 8.8635C1.29455 5.59077 4.46545 3.40896 8 3.40896ZM6.45722 7.32072C6.82609 6.95185 7.31345 6.7287 7.82983 6.68832L5.82482 8.69338C5.86519 8.17698 6.08834 7.6896 6.45722 7.32072Z" fill="#006FFD"/>
</mask>
<g mask="url(#mask0_237_3188)">
<rect y="0.863342" width="16" height="16" fill="#8F9098"/>
</g>
</svg>
